<?xml version="1.0" standalone="no"?>
<!DOCTYPE svg PUBLIC "-//W3C//DTD SVG 20010904//EN"
 "http://www.w3.org/TR/2001/REC-SVG-20010904/DTD/svg10.dtd">
<svg version="1.0" xmlns="http://www.w3.org/2000/svg"
 width="550.000000pt" height="494.000000pt" viewBox="0 0 550.000000 494.000000"
 preserveAspectRatio="xMidYMid meet">

<g transform="translate(0.000000,494.000000) scale(0.100000,-0.100000)"
fill="#000000" stroke="none">
<path d="M3978 4842 c-42 -33 -321 -190 -453 -255 -78 -38 -321 -141 -415
-175 -108 -39 -415 -137 -457 -147 l-33 -7 0 -239 c0 -131 3 -239 8 -239 4 1
23 14 42 30 42 37 64 37 124 4 l46 -26 0 151 c0 113 3 153 13 155 224 64 327
98 442 143 147 58 539 245 656 313 37 22 74 40 83 40 8 0 44 -18 78 -41 68
-44 300 -164 468 -242 126 -59 345 -142 490 -186 58 -18 111 -34 118 -36 26
-9 11 -487 -24 -744 -37 -279 -142 -591 -276 -821 -161 -276 -387 -520 -600
-648 l-77 -46 -6 -56 c-9 -71 -28 -148 -59 -234 -14 -39 -24 -71 -23 -73 5 -4
202 121 277 175 201 147 299 240 481 453 53 63 177 249 241 364 126 223 227
531 289 883 19 103 21 165 24 523 l3 406 -96 22 c-125 28 -356 101 -512 163
-219 86 -591 281 -735 385 -32 24 -61 43 -65 42 -3 0 -26 -17 -52 -37z"/>
<path d="M1390 4830 c-155 -106 -531 -299 -755 -388 -138 -55 -520 -172 -561
-172 l-34 0 0 -217 c0 -607 52 -947 201 -1321 212 -530 553 -932 1033 -1216
43 -25 75 -40 72 -34 -26 63 -67 209 -72 255 -4 32 -9 63 -13 70 -3 7 -33 29
-66 51 -134 87 -374 331 -500 507 -73 103 -175 290 -227 418 -139 341 -193
672 -186 1122 l3 180 35 6 c52 8 339 111 471 167 112 48 589 285 640 318 26
17 28 16 65 -6 81 -48 544 -279 654 -325 106 -44 247 -94 313 -109 l27 -6 0
83 c0 58 5 89 15 104 15 21 14 23 -14 37 -36 19 -217 97 -318 137 -146 58
-577 285 -685 360 -14 11 -30 19 -35 18 -4 -1 -33 -18 -63 -39z"/>
<path d="M1250 4308 c-332 -173 -616 -294 -772 -328 l-58 -13 0 -141 c0 -184
17 -439 35 -548 38 -218 142 -506 247 -683 92 -155 213 -312 337 -436 69 -70
137 -132 150 -139 23 -12 24 -12 17 21 -47 222 -58 385 -51 729 7 344 9 370
35 370 11 0 68 18 127 40 59 21 191 69 293 106 102 36 228 86 280 109 98 44
354 178 470 245 36 21 80 44 98 51 l33 14 2 127 2 127 -150 52 c-82 28 -199
72 -260 97 -104 42 -467 219 -565 276 -25 14 -52 26 -60 26 -8 0 -103 -46
-210 -102z"/>
<path d="M3975 4380 c-347 -167 -567 -271 -600 -285 -79 -33 -324 -115 -364
-121 -31 -5 -41 -11 -37 -21 4 -8 6 -67 6 -131 l0 -117 248 -127 c237 -122
383 -189 577 -265 170 -67 360 -136 433 -157 l73 -21 -4 -460 c-4 -351 -8
-481 -20 -550 -9 -49 -14 -91 -13 -92 7 -7 109 76 185 150 202 199 419 560
495 822 72 253 90 387 102 751 l7 211 -49 12 c-126 32 -420 150 -644 259 -135
65 -264 131 -288 145 -23 15 -43 27 -44 26 -2 0 -30 -13 -63 -29z"/>
<path d="M2695 3677 c-119 -88 -563 -330 -785 -427 -177 -78 -485 -189 -577
-208 l-37 -8 -4 -258 c-9 -608 58 -986 261 -1464 38 -89 142 -289 185 -356 81
-125 221 -296 342 -416 156 -155 302 -265 517 -392 136 -80 150 -86 168 -73
11 8 49 31 85 52 112 64 328 212 403 276 260 222 519 575 675 922 105 234 183
514 223 800 18 124 22 216 26 531 l5 381 -29 7 c-323 78 -868 324 -1278 578
-66 41 -124 77 -130 80 -5 3 -28 -8 -50 -25z m86 -256 c84 -65 483 -275 757
-398 153 -68 354 -143 384 -143 16 0 18 -14 21 -147 8 -504 -48 -846 -204
-1241 -128 -323 -402 -697 -672 -915 -99 -81 -310 -227 -327 -227 -6 0 -27 11
-48 24 -20 13 -58 35 -84 50 -120 67 -353 267 -475 406 -234 267 -456 708
-532 1055 -52 238 -64 349 -69 638 -5 330 -2 357 34 357 52 0 432 162 674 287
200 103 469 253 476 264 9 15 40 10 65 -10z"/>
<path d="M2595 3191 c-71 -37 -201 -107 -288 -154 -239 -129 -479 -235 -606
-267 l-43 -11 5 -257 c4 -219 8 -279 31 -404 76 -428 181 -688 407 -1008 119
-169 315 -369 439 -448 30 -19 81 -52 113 -73 32 -22 63 -39 68 -39 5 0 9 91
9 218 0 126 4 223 10 232 7 10 9 -61 8 -218 -2 -127 1 -232 5 -232 4 0 36 19
70 42 131 88 269 202 343 284 89 97 237 291 266 348 11 21 33 57 49 79 16 22
29 45 29 52 0 6 14 33 31 60 45 71 104 211 149 355 82 261 109 446 115 777 l5
232 -53 17 c-57 18 -376 152 -392 164 -5 4 -98 52 -205 105 -107 54 -243 124
-301 156 -58 33 -108 59 -110 59 -2 0 -3 -84 -1 -187 2 -103 0 -184 -4 -181
-3 4 -9 88 -13 187 l-6 180 -130 -68z"/>
</g>
</svg>
