<?xml version="1.0" standalone="no"?>
<!DOCTYPE svg PUBLIC "-//W3C//DTD SVG 20010904//EN"
 "http://www.w3.org/TR/2001/REC-SVG-20010904/DTD/svg10.dtd">
<svg version="1.0" xmlns="http://www.w3.org/2000/svg"
 width="512.000000pt" height="512.000000pt" viewBox="0 0 512.000000 512.000000"
 preserveAspectRatio="xMidYMid meet">

<g transform="translate(0.000000,512.000000) scale(0.100000,-0.100000)"
fill="#000000" stroke="none">
<path d="M2485 4945 c-16 -9 -35 -22 -42 -28 -14 -14 -693 -1286 -693 -1298 0
-5 346 -9 806 -9 680 0 805 2 802 14 -2 7 -156 300 -343 651 -251 470 -348
643 -369 658 -39 27 -121 34 -161 12z"/>
<path d="M1571 3293 c-5 -10 -93 -175 -195 -367 -102 -191 -186 -352 -186
-357 0 -5 569 -9 1365 -9 794 0 1365 4 1365 9 0 5 -87 172 -194 372 l-194 364
-976 3 c-921 2 -976 1 -985 -15z"/>
<path d="M966 2158 c-30 -57 -120 -224 -199 -373 l-144 -270 963 -3 c529 -1
1399 -1 1932 0 l969 3 -198 370 -197 370 -1536 3 -1535 2 -55 -102z"/>
<path d="M412 1118 c-305 -565 -412 -775 -412 -808 0 -48 38 -109 80 -131 34
-18 118 -19 2480 -19 2362 0 2446 1 2480 19 43 22 80 83 80 131 0 28 -52 132
-234 465 l-234 430 -2095 3 -2096 2 -49 -92z"/>
</g>
</svg>
